<?xml version="1.0" encoding="utf-8" ?>
<svg xmlns="http://www.w3.org/2000/svg" xmlns:xlink="http://www.w3.org/1999/xlink" width="1024" height="1024">
	<path transform="scale(2 2)" d="M253.734 216.775C267.76 215.032 265.135 230.008 265.118 238.436L265.111 361.748C275.929 361.884 286.804 361.392 297.613 361.77C332.591 362.994 333.431 419.084 290.812 417.036C290.524 427.556 290.783 438.201 290.818 448.733C290.869 464.527 292.552 461.657 282.371 474.973L271.823 488.766C268.415 493.23 263.946 501.718 258.616 503.798C252.268 504.902 250.546 501.785 247.127 497.514C243.061 492.435 222.248 466.206 221.633 463.26C221.002 460.24 221.554 452.267 221.566 448.75L221.517 417.036C211.271 417.069 204.294 415.96 196.597 408.55C185.808 398.165 185.517 380.276 196.09 369.627C204.912 360.74 215.397 361.728 226.864 361.733L246.874 361.748C247.087 357.859 246.883 353.913 246.881 350.014L246.859 236.238C246.845 228.851 244.907 219.65 253.734 216.775ZM215.498 380.144C211.245 380.46 208.861 382.687 206.79 386.212C205.869 402.38 222.926 398.75 234.214 398.751L286.203 398.753C289.632 398.753 293.173 398.961 296.587 398.746C307.844 396.008 307.85 380.999 296.398 380.251C292.202 379.977 287.93 380.116 283.726 380.126L263.978 380.153C247.84 380.152 231.63 379.811 215.498 380.144ZM239.907 417.036C239.338 421.262 239.903 428.122 239.906 432.662L239.893 448.73C239.887 451.504 239.731 454.343 239.907 457.108C244.832 464.576 250.88 471.275 255.858 478.71C258.462 475.617 260.936 472.27 263.269 468.965C265.589 465.951 270.611 460.402 271.908 457.042C272.802 454.728 272.295 422.572 272.297 417.036C261.503 417.051 250.699 417.149 239.907 417.036Z"/>
	<path transform="scale(2 2)" d="M255.858 2.82713C261.701 2.56788 265.166 10.3884 267.928 14.3956C301.818 63.5509 331.117 117.107 352.729 172.848C362.569 198.225 360.52 189.051 344.588 211.469C327.843 235.031 311.534 269.039 308.672 298.207C310.148 300.044 311.516 301.926 312.852 303.868C316.263 302.226 319.372 300.008 322.665 298.141L350.581 282.055C364.267 274.202 377.99 266.365 392.017 259.129L416.497 246.271C423.237 242.678 431.238 236.291 437.614 244.136C444.211 252.252 452.977 268.374 458.126 277.627C467.158 293.86 468.479 296.203 450.987 305.178C446.779 307.337 442.612 309.581 438.432 311.794L384.53 341.267C376.99 345.45 364.005 351.602 357.55 356.899C363.012 364.293 378.432 377.136 371.639 385.397C362.686 396.284 354.584 382.426 349.638 376.524L302.059 319.718C288.269 303.3 288.285 306.917 292.359 285.427C299.049 250.141 316.464 216.001 339.01 188.226C320.422 139.188 295.328 91.0626 267.301 46.764C263.647 40.9898 259.694 35.4006 256.151 29.5661L255.858 29.8632C251.596 35.2404 248.206 41.432 244.458 47.1805C219.275 85.8121 188.049 145.44 172.766 189.479C194.316 209.714 211.829 252.126 218.28 279.757C224.666 307.111 223.602 303.191 207.181 322.704L161.777 376.63C158.627 380.413 153.919 388.459 148.528 389.047C141.465 389.816 135.578 381.611 138.937 375.305C140.821 371.765 151.184 360.549 154.541 356.899C151.387 354.723 147.955 352.997 144.621 351.118L58.5029 302.957C49.649 297.93 43.2488 295.128 49.695 284.175C55.1716 274.869 61.2539 265.866 66.9478 256.692C77.6474 239.453 75.7232 234.192 96.4621 245.817L155.313 278.528C169.88 286.565 184.495 294.484 198.724 303.112C200.311 301.515 201.8 299.812 203.386 298.207C200.923 267.051 182.502 228.262 161.969 204.178C159.306 201.054 153.856 196.687 153.073 192.443C151.562 184.262 182.818 119.096 187.317 109.934C202.095 79.8376 219.261 50.9621 237.993 23.1692C242.258 16.8405 248.145 4.12767 255.858 2.82713ZM86.132 261.148C80.0504 269.697 75.4742 279.287 69.3089 287.721C98.0126 304.39 128.008 320.953 157.247 336.865C160.476 338.622 163.604 340.842 166.99 342.247L168.677 339.503C172.796 334.458 183.078 321.778 187.465 318.441C183.579 315.23 179.042 312.973 174.662 310.512L105.734 272.091C99.185 268.48 92.753 264.622 86.132 261.148ZM426.219 261.972L352.857 302.481C343.703 307.711 334.168 312.655 325.368 318.441L338.156 333.769C339.99 335.968 341.97 338.082 343.687 340.373L344.922 342.247C353.143 337.53 361.135 332.413 369.401 327.763C393.636 314.13 417.808 301.52 442.279 288.515C439.92 284.487 428.317 263.531 426.219 261.972Z"/>
</svg>
