<?xml version="1.0" encoding="utf-8" ?>
<svg xmlns="http://www.w3.org/2000/svg" xmlns:xlink="http://www.w3.org/1999/xlink" width="1024" height="1024">
	<path transform="scale(2 2)" d="M254.694 70.5795C262.471 69.8431 275.293 83.0477 281.349 87.9557L317.647 117.314C328.21 125.751 336.718 131.058 347.86 138.59C384.653 163.463 415.222 201.863 436.132 240.563C441.232 250.002 444.552 260.348 448.433 270.325L498.695 399.868C500.676 405.006 510.589 427.095 510.308 431.305C509.496 443.491 497.441 442.132 489.082 442.113L350.372 442.13C338.033 442.217 336.783 439.807 332.476 427.752L296.484 324.597C289.342 303.546 285.483 288.529 259.012 285.249C236.571 284.807 225.499 295.087 218.979 314.805C206.934 351.23 194.054 388.377 180.932 424.377C173.46 444.877 171.969 442.11 152.182 442.105L25.8902 442.103C17.6046 442.116 4.91956 444.258 2.89851 433.123C1.90696 427.66 7.9362 416.269 9.92165 411.1L62.0748 274.524C65.7494 264.944 69.006 255.066 73.3659 245.77C94.0843 201.596 127.889 162.992 168.256 135.599C180.582 127.235 187.885 122.144 199.566 112.661L233.014 85.8282C237.951 81.9054 248.629 71.4754 254.694 70.5795ZM255.595 94.1622C243.82 104.178 231.479 113.642 219.421 123.321C205.406 134.571 195.688 142.534 180.724 152.379C137.044 181.114 105.65 221.074 86.3112 269.142C66.0293 319.555 47.9221 370.825 27.9789 421.373L104.126 421.367C107.541 421.364 111.024 421.203 114.432 421.373C112.758 415.9 110.362 410.606 108.376 405.237L94.5333 368.541C92.5991 363.504 89.61 358.27 88.4894 353.011C86.591 344.1 97.1133 338.555 104.263 342.824C109.703 346.072 113.996 361.919 116.113 367.691L132.218 409.948C133.662 413.638 135.544 417.528 136.442 421.373L160.207 421.373C162 414.824 164.607 408.356 166.83 401.936L195.134 320.401C198.326 310.91 200.756 300.625 205.872 291.964C216.429 274.095 238.339 262.671 259.012 264.25C297.642 268.568 306.026 287.493 316.831 319.727L348.569 410.468C349.885 414.084 351.369 417.695 352.498 421.373L368.011 421.397C370.449 421.402 373.077 421.62 375.495 421.373L399.3 357.061C401.114 352.055 402.728 343.33 408.102 340.84C413.398 338.387 420.451 340.953 422.836 346.321C425.365 352.011 420.691 359.518 418.69 364.706L402.013 409.702C400.6 413.606 399.346 417.58 397.645 421.373L484.402 421.373C483.564 416.657 479.536 408.457 477.665 403.618L432.92 287.713C428.798 277.059 425.406 265.702 420.425 255.451C401.043 215.562 369.107 178.744 332.597 153.308C320.361 144.784 312.326 139.719 300.523 130.104L271.893 106.902C268.968 104.521 258.02 95.0162 255.595 94.1622Z"/>
</svg>
