<?xml version="1.0" encoding="utf-8" ?>
<svg xmlns="http://www.w3.org/2000/svg" xmlns:xlink="http://www.w3.org/1999/xlink" width="1024" height="1024">
	<path transform="scale(2 2)" d="M21.9993 81.0216C28.2393 86.7619 34.1033 92.8352 40.1422 98.7795L86.8866 145.142C89.8296 148.036 92.7119 151.111 95.9173 153.715C101.488 154.198 107.294 153.737 112.893 153.72L147.014 153.715C146.858 149.237 146.996 144.72 147.014 140.237L460.396 140.239C473.503 140.239 486.72 139.86 499.813 140.242C517.38 140.755 509.664 156.782 505.875 166.374C488.951 209.206 452.724 249.071 411.398 270.189C393.012 279.585 363.851 290.096 362.248 315.707C361.119 333.753 391.081 379.099 402.103 391.747C406.992 398.108 406.221 415.575 404.908 422.367C403.148 431.47 391.783 429.525 384.999 429.51L193.937 429.505C188.963 429.518 178.613 430.993 174.684 427.353C170.348 423.336 171.298 403.572 171.795 397.119C172.368 389.691 179.134 385.833 183.156 380.155C192.658 366.741 215.212 329.675 214.641 316.441C213.734 295.434 174.648 269.24 158.469 260.183C145.088 252.693 146.959 252.891 146.995 238.68L147.014 216.123L25.5838 216.138C6.316 216.157 1.86388 218.208 1.91097 198.448L1.93115 169.535C1.93835 150.279 8.48351 153.694 25.5565 153.7L52.6539 153.715C57.262 153.721 61.9194 153.91 66.5209 153.715C60.9116 147.186 54.3228 141.376 48.198 135.333C35.0377 122.347 20.5833 108.487 7.92709 95.0653C10.4955 91.4737 18.4429 83.7249 21.9993 81.0216ZM166.75 159.993L166.75 242.644C169.091 243.724 171.298 245.145 173.527 246.437C196.093 259.517 222.716 277.678 232.11 302.863C238.514 320.032 232.372 332.097 225.221 347.605C217.471 364.412 207.804 380.624 196.531 395.332C194.939 397.408 193.197 399.428 191.75 401.604C191.747 404.315 191.687 407.039 191.75 409.748C213.203 410.001 234.693 409.747 256.149 409.746L385.508 409.748C385.516 407.508 385.561 405.262 385.508 403.022C370.757 385.637 358.758 365.896 349.823 344.937C343.068 328.832 338.639 317.214 345.693 299.956C352.795 282.579 369.641 266.053 387.089 258.89C389.641 257.843 392.382 257.234 394.874 256.065C434.785 237.329 470.231 201.274 486.402 159.993L179.704 159.99C175.401 159.989 171.046 159.828 166.75 159.993ZM21.9993 173.77L21.6372 174.055L21.6835 175.422L21.3631 175.435L21.7065 175.564C22.291 182.273 22.0065 189.142 21.9993 195.875C27.551 196.247 33.3375 195.879 38.919 195.877L121.673 195.881C129.857 195.882 138.138 196.148 146.312 195.875L146.91 195.783C147.281 193.9 147.286 176.274 147.014 173.77L38.4685 173.765C32.9902 173.765 27.472 173.617 21.9993 173.77Z"/>
</svg>
