<svg id="Capa_1" enable-background="new 0 0 512 512" viewBox="0 0 512 512" xmlns="http://www.w3.org/2000/svg"><g><g><path d="m181.824 97.523c18.238-8.571 38.183-14.082 59.176-15.873v-81.65c-35.811 2.066-69.648 11.478-100.034 26.755z"></path><path d="m356.134 112.564c16.838 11.79 31.512 26.465 43.303 43.303l70.782-40.867c-19.185-29.088-44.131-54.034-73.219-73.219z"></path><path d="m271 0v81.65c20.993 1.791 40.938 7.302 59.176 15.873l40.858-70.768c-30.386-15.277-64.223-24.689-100.034-26.755z"></path><path d="m241 512v-81.65c-20.993-1.791-40.938-7.302-59.176-15.873l-40.858 70.768c30.386 15.277 64.223 24.689 100.034 26.755z"></path><path d="m414.477 181.824c8.571 18.238 14.082 38.183 15.873 59.176h81.65c-2.066-35.811-11.478-69.648-26.755-100.034z"></path><path d="m485.245 371.034c15.277-30.386 24.689-64.223 26.755-100.034h-81.65c-1.791 20.993-7.302 40.938-15.873 59.176z"></path><path d="m399.437 356.134c-11.791 16.838-26.465 31.513-43.303 43.303l40.866 70.782c29.088-19.185 54.034-44.131 73.219-73.219z"></path><path d="m155.866 399.436c-16.838-11.79-31.512-26.465-43.303-43.303l-70.782 40.867c19.185 29.088 44.131 54.034 73.219 73.219z"></path><path d="m97.523 330.176c-8.571-18.238-14.082-38.183-15.873-59.176h-81.65c2.066 35.811 11.478 69.648 26.755 100.034z"></path><path d="m330.176 414.477c-18.238 8.571-38.183 14.082-59.176 15.873v81.65c35.811-2.066 69.648-11.478 100.034-26.755z"></path><path d="m26.755 140.966c-15.277 30.386-24.689 64.223-26.755 100.034h81.65c1.791-20.993 7.302-40.938 15.873-59.176z"></path><path d="m112.564 155.866c11.791-16.838 26.465-31.513 43.303-43.303l-40.867-70.782c-29.088 19.185-54.034 44.131-73.219 73.219z"></path></g><g><path d="m183.858 191h-40.383l20.191 34.989z"></path><path d="m163.666 286.011-20.191 34.989h40.383z"></path><path d="m256 385.99 20.192-34.99h-40.384z"></path><path d="m118.976 208.568c-5.162 14.87-7.976 30.827-7.976 47.432s2.814 32.562 7.976 47.432l27.372-47.432z"></path><path d="m256 126.01-20.192 34.99h40.384z"></path><path d="m331.015 256-37.51-65h-75.009l-37.511 65 37.511 65h75.009z"></path><path d="m310.829 161h54.626c-20.877-24.022-49.514-41.121-81.966-47.375z"></path><path d="m201.171 351h-54.626c20.877 24.022 49.514 41.121 81.966 47.375z"></path><path d="m201.171 161 27.339-47.375c-32.452 6.254-61.089 23.353-81.966 47.375z"></path><path d="m310.829 351-27.339 47.375c32.452-6.254 61.089-23.353 81.966-47.375z"></path><path d="m393.024 208.568-27.372 47.432 27.372 47.432c5.162-14.87 7.976-30.827 7.976-47.432s-2.814-32.562-7.976-47.432z"></path><path d="m348.334 286.011-20.192 34.989h40.383z"></path><path d="m368.525 191h-40.383l20.192 34.989z"></path></g></g></svg>