<?xml version="1.0" encoding="utf-8" ?>
<svg xmlns="http://www.w3.org/2000/svg" xmlns:xlink="http://www.w3.org/1999/xlink" width="1024" height="1024">
	<path transform="scale(2 2)" d="M256.007 43.0721C260.657 43.4088 263.651 47.1302 267.08 49.9288L362.999 126.804C378.896 139.627 378.323 134.475 378.324 153.556L378.303 179.592C380.816 182.729 384.623 185.308 387.735 187.849L497.891 276.974C502.423 280.619 509.163 284.028 509.467 290.587C509.73 296.246 505.174 301.488 499.467 301.921C494.966 302.263 489.529 300.166 485.17 299.165L436.588 287.769C432.415 286.765 428.383 285.475 424.056 285.552L424.056 440.491C424.058 448.036 427.193 464.717 416.165 466.203C412.654 466.675 408.916 466.273 405.377 466.257L308.228 466.268C289.778 466.274 286.243 466.939 286.248 446.968L286.251 428.619C286.253 409.174 285.955 389.682 286.254 370.244L258.562 370.244L225.895 370.244L225.909 445.787C225.918 454.394 226.984 465.894 214.504 466.24C205.854 466.48 197.138 466.246 188.481 466.247L110.181 466.257C85.1538 466.254 87.0176 465.244 87.0131 438.569L87.0184 285.552C78.4911 287.659 15.0008 302.157 10.5054 301.28C4.71488 300.151 1.03268 294.063 2.56646 288.381C3.96182 283.212 13.5973 276.994 17.6197 273.73L117.908 192.318C123.244 187.999 128.546 183.016 134.508 179.592L134.485 155.425C134.484 152.123 133.602 140.846 135.355 138.177C137.397 135.068 160.33 117.651 165.31 113.697L242.269 52.0509C246.535 48.6175 250.381 43.9552 256.007 43.0721ZM374.916 203.237C373.349 208.026 372.388 213.012 370.867 217.831C367.77 227.64 352.834 257.302 342.938 262.375C328.732 269.659 328.667 249.874 327.192 243.036C324.799 231.936 319.126 220.251 313.026 210.716L281.787 210.707C276.645 210.705 271.367 210.422 266.245 210.716C266.016 226.134 266.247 241.589 266.247 257.011L266.245 349.747C274.017 350.056 293.287 348.558 299.726 350.172C308.061 352.262 306.667 362.668 306.656 369.161L306.636 446L310.625 446L392.125 446.011C396.151 446.031 400.182 446.195 404.205 446C404.463 441.14 404.209 436.177 404.207 431.303L404.219 279.491C404.299 264.713 402.568 258.548 420.733 262.954L434.245 266.25C443.089 268.413 452.194 270.129 460.943 272.586C456.513 268.032 447.879 262.619 442.52 258.165C420.385 239.764 397.43 221.282 374.916 203.237ZM136.967 203.237C112.183 224.08 86.6307 244.004 61.8279 264.819C59.4097 266.849 56.8535 268.841 54.6181 271.066C62.8485 268.83 71.4439 267.523 79.7996 265.754C107.008 259.993 107.739 259.805 107.739 285.737L107.735 446C117.182 445.999 204.471 446.367 205.552 445.892C205.61 445.342 205.637 444.863 205.577 444.312C205.902 437.177 205.583 429.96 205.58 422.811L205.569 367.643C205.547 349.386 207.96 349.674 224.874 349.71L245.751 349.747L245.747 226.15C245.747 221.017 245.614 215.845 245.751 210.716L200.574 210.716C193.3 220.252 188.661 233.266 185.986 244.867C184.424 251.644 184.338 261.744 175.414 263.025C160.95 265.101 143.638 227.188 140.503 216.583C139.935 214.662 137.578 204.19 136.967 203.237ZM256.007 66.9922L165.838 139.798C162.337 142.581 158.834 145.656 155.002 147.968C154.994 175.607 153.397 205.221 169.06 229.475C184.884 189.001 204.232 168.029 245.751 150.726L245.723 137.071C245.639 128.874 245.341 120.413 256.007 120.18C271.19 123.165 265.394 138.487 266.245 150.726C297.481 162.863 325.911 183.851 339.613 215.295C341.482 219.583 342.334 224.031 343.922 228.372C358.942 199.574 356.461 177.717 357.494 147.968C346.31 141.391 327.954 124.789 317.436 116.307L275.603 82.938C269.049 77.6751 262.368 72.4879 256.007 66.9922ZM266.245 173.222C265.736 178.841 266.312 184.713 266.245 190.372C275.744 190.512 285.446 190.717 294.937 190.372L295.151 189.997C290.256 185.141 273.028 175.744 266.245 173.222ZM245.751 173.222C241.611 175.466 219.787 186.605 218.175 190.222L218.562 190.372L245.751 190.372L245.672 177.023C245.663 175.826 245.944 174.377 245.751 173.222Z"/>
</svg>
