<?xml version="1.0" encoding="utf-8" ?>
<svg xmlns="http://www.w3.org/2000/svg" xmlns:xlink="http://www.w3.org/1999/xlink" width="1024" height="1024">
	<path transform="scale(2 2)" d="M258.995 103.249L259.357 103.228C272.089 102.549 286.362 103.751 299.125 104.726C358.219 109.237 438.755 125.843 483.575 166.693C497.217 179.127 510.091 199.171 510.869 217.994C511.384 230.453 507.566 253.289 506.425 266.8L499.78 348.009C499.386 352.332 499.835 361.418 496.648 364.684C491.64 369.817 475.299 375.469 468.283 377.973C403.281 401.174 322.563 409.117 254.125 408.941C188.657 409.191 109.407 399.169 47.1306 379.578C39.5967 377.208 19.8511 370.419 14.8454 365.186C11.457 361.644 11.427 339.408 10.9527 333.149L3.26562 233.663C2.76235 228.154 1.65221 222.544 1.87495 217.008C2.63402 198.14 14.4553 179.71 27.9605 167.188C78.9258 119.931 188.158 100.571 258.995 103.249ZM244.775 123.751C227.344 125.048 210.718 125.307 193.076 127.356C151.447 132.191 109.804 141.652 72.5623 161.33C51.5182 172.449 21.2084 193.952 23.3259 221.218C25.4432 248.48 60.2728 269.743 82.9986 278.956C82.9231 275.271 83.0139 271.588 82.9433 267.906C82.4265 240.951 87.714 245.212 110.478 245.209L268.688 245.218L404.955 245.212C428.035 245.207 428.987 242.732 429.023 268.91C429.028 272.699 429.271 276.487 428.999 280.271C433.665 278.798 438.09 276.223 442.347 273.839C528.75 225.449 481.296 175.744 411.345 148.899C357.696 128.31 301.547 123.712 244.775 123.751ZM210.543 265.383L137.667 265.382C126.426 265.363 115.155 265.592 103.918 265.383L103.918 372.587C139.114 379.73 170.001 382.433 205.007 386.218C205.358 371.325 202.847 329.08 206.048 316.743C211.995 293.824 235.382 296.015 253.064 296C268.059 295.988 284.758 293.284 296.839 303.595C309.101 314.963 306.773 328.657 306.755 343.659C306.738 357.84 306.595 372.039 306.75 386.218C342.438 382.634 372.727 378.388 408.123 372.587L408.125 276.69C408.128 272.969 408.382 269.086 408.123 265.383C383.251 265.129 358.356 265.439 333.482 265.402L210.543 265.383ZM232.486 316.973C229.186 318.183 227.65 319.979 225.705 322.782C225.442 343.133 224.618 367.559 225.705 387.748C230.384 387.079 234.973 387.512 239.669 387.682C251.816 388.123 267.77 386.413 279.063 387.748C281.624 387.236 283.442 387.277 286.012 387.748L286.003 344.228C286.004 338.418 286.623 329.009 285.69 323.663C284.001 313.977 267.47 316.953 260.35 316.954C251.118 316.955 241.692 316.311 232.486 316.973ZM26.9988 268.991C28.875 284.64 29.5689 300.511 30.7642 316.231L32.3998 338.078C32.7593 342.773 33.2938 347.53 33.3086 352.237C40.4917 355.167 75.9853 368.034 82.9986 367.984C83.1544 364.203 83.0093 360.406 83.0034 356.622L82.9969 335.946C82.9967 324.608 83.4139 313.119 82.9986 301.801C64.8067 292.626 53.8697 289.812 36.5067 276.372C33.6469 274.159 30.1695 270.452 26.9988 268.991ZM484.738 268.991C464.566 284.467 454.885 293.591 428.999 303.595C429.278 310.523 428.994 317.552 428.993 324.493L428.999 367.157C435.141 365.797 474.795 355.065 477.823 351.115C479.047 346.436 479.041 338.716 479.493 333.631L484.285 276.06C484.47 273.805 484.933 271.228 484.738 268.991Z"/>
</svg>
