<?xml version="1.0" encoding="utf-8" ?>
<svg xmlns="http://www.w3.org/2000/svg" xmlns:xlink="http://www.w3.org/1999/xlink" width="1024" height="1024">
	<path transform="scale(2 2)" d="M312.049 22.3001C321.678 21.78 330.365 29.3546 337.528 34.9719C367.362 58.3666 378.719 87.6881 383.109 123.515C387.438 120.281 391.405 116.565 395.857 113.492C418.176 98.0935 445.32 90.5096 472.328 93.3647C479.274 94.099 501.383 97.7712 505.813 102.193C511.713 108.083 508.183 119.866 506.597 126.862C501.294 150.264 489.638 170.872 472.595 187.714C407.8 249.552 297.785 218.415 279.064 129.116C272.361 97.1387 280.792 63.53 298.526 36.5133C301.983 31.247 305.317 23.6886 312.049 22.3001ZM453.81 117.001C448.231 117.812 442.641 118.538 437.203 120.08C411.484 127.371 387.318 148.382 376.417 173.046C373.75 179.082 370.604 186.609 368.175 192.791C377.955 195.485 388.174 196.654 398.312 196.121C442.784 191.962 473.86 162.714 483.92 120.175C474.094 117.607 463.943 116.667 453.81 117.001ZM318.113 50.2303C304.221 69.2385 298.283 98.8908 301.811 121.741C305.583 146.172 322.071 169.716 343.402 182.274L345.492 183.711C348.228 178.207 351.136 172.743 353.287 166.975C369.257 124.15 354.242 77.4645 318.113 50.2303Z"/>
	<path transform="scale(2 2)" d="M40.8612 47.8978C63.1214 45.8772 72.8843 60.0632 86.6772 74.0194L252.113 240.201C254.18 242.289 256.403 244.234 258.518 246.275C263.961 246.926 269.53 246.295 275 246.279L456.724 246.265C462.741 246.26 472.658 245.947 478.348 247.177C490.793 249.867 487.522 265.095 487.52 274.508C487.515 296.134 487.465 315.7 482.562 336.871C467.852 400.383 435.382 443.138 381.376 476.913C373.821 481.354 365.842 487.248 356.788 487.491C343.699 487.843 330.521 487.49 317.421 487.493L201.501 487.509C184.164 487.509 184.893 489.937 170.621 481.019C114.85 446.168 75.2527 396.807 63.1634 330.444C59.5697 310.716 59.5422 291.127 59.4959 271.19C59.4344 244.667 60.5242 246.2 83.616 246.265L116.668 246.275C111.792 236.7 103.922 225.428 98.147 215.985L83.1214 191.502C74.8872 178.361 68.2171 171.942 57.6986 161.366L23.8517 127.228C19.3275 122.693 11.2972 115.622 8.00694 110.379C-8.38218 84.2652 9.79926 50.1491 40.8612 47.8978ZM321.224 270.244C302.177 270.025 283.106 270.243 264.055 270.244L104.948 270.245C97.5695 270.247 90.1177 270.503 82.7498 270.244C82.7384 283.997 82.5765 297.675 84.1232 311.369C91.3005 374.916 126.849 424.346 179.463 457.982C190.375 464.958 189.906 464.004 202.909 464.013L224.945 464L339.163 464.009C352.418 464.016 352.612 465.233 364.039 458.942C418.168 429.141 453.483 378.775 462.078 316.917C464.409 300.147 462.625 286.051 463.753 270.244L321.224 270.244ZM43.5782 71.6152C31.0552 72.3517 21.6709 85.9017 27.4761 96.5309C30.0675 101.276 36.4847 106.467 40.3731 110.318L80.9273 151.237C95.1025 165.755 99.495 173.224 110.237 190.44L138.017 235.468C140.147 239.048 142.19 243.191 144.994 246.275L207.651 246.275C213.39 246.29 219.215 246.519 224.945 246.275C208.066 230.057 191.697 213.395 175.197 196.797L60.3551 81.3896C55.3302 76.2515 51.4907 71.4178 43.5782 71.6152Z"/>
</svg>
