<?xml version="1.0" encoding="utf-8" ?>
<svg xmlns="http://www.w3.org/2000/svg" xmlns:xlink="http://www.w3.org/1999/xlink" width="1023" height="1024">
	<path transform="scale(2 2)" d="M67.9322 3.04546C82.3042 1.06547 85.4714 21.0131 87.6578 31.522C93.7681 33.3267 100.354 33.9441 106.656 34.85L137.28 38.9744C229.975 50.5208 314.987 48.6589 406.578 33.4662C409.847 32.9239 420.667 31.5076 423.053 30.3906C426.023 29.0002 427.303 13.9059 430.843 9.16926C437.21 0.651922 452.619 4.43408 452.947 15.6492C453.136 22.1514 447.506 39.4588 445.417 46.6374C441.961 58.5102 438.111 70.243 439.757 82.7998C442.853 106.416 464.087 124.682 487.618 125.197C493.077 125.316 498.304 124.608 502.896 128.297C511.085 134.878 507.498 147.931 497.152 149.925C494.375 150.461 491.398 150.269 488.582 150.269L436.115 150.248C429.491 150.247 422.723 149.806 416.121 150.25L416.121 196.776C422.777 196.753 433.425 195.495 438.506 200.208C443.635 204.963 443.906 212.969 439.006 218.009C433.385 223.791 423.375 221.498 416.121 221.536L416.121 482.247C421.045 482.19 425.477 482.018 429.454 485.546C440.601 495.431 431.678 508.54 416.195 508.978C395.389 509.567 391.094 507.432 391.235 488.089L391.244 240.375L391.244 221.536C371.938 222.021 352.561 221.515 333.248 221.525C300.828 221.541 303 221.022 303.02 192.273L303.01 150.25C299.234 150.532 295.452 150.291 291.67 150.27L208.373 150.25L208.377 191.114C208.397 213.228 212.141 221.605 186.88 221.54L120.649 221.536C120.281 228.419 120.646 235.522 120.647 242.429L120.629 473.473C120.627 483.751 124.412 505.403 111.585 508.548C108.709 509.254 93.6538 509.212 90.1395 508.925C73.1819 507.543 72.3085 480.054 95.8839 483.008L95.8839 221.536C89.2886 221.863 76.4996 222.692 71.9167 218.69C65.2961 212.908 66.5593 200.691 75.3787 197.734C80.223 196.11 90.236 197.074 95.8839 196.776L95.8839 150.25C91.1374 150.615 86.2376 150.265 81.4735 150.251L30.4376 150.256C23.7171 150.27 16.0122 151.552 10.126 147.539C4.54468 143.735 2.96437 135.514 6.89646 129.97C14.9301 118.641 46.8835 131.189 65.4921 103.923C80.1882 82.39 69.3185 54.565 62.0265 32.3783C58.7672 22.4615 50.8259 6.14585 67.9322 3.04546ZM416.944 56.89C411.121 57.4714 405.379 58.6351 399.605 59.5683C301.903 75.3607 208.532 74.0114 110.306 60.2339C105.521 59.5627 100.685 58.6249 95.8839 58.1421C103.022 84.3755 96.3078 105.139 80.1404 125.29C81.7291 125.281 83.3181 125.263 84.9067 125.29L433.969 125.29C416.597 104.624 411.841 82.9298 417.196 57.1266L416.944 56.89ZM383.508 150.25L346.342 150.244C340.155 150.243 333.92 150.076 327.739 150.25L327.739 196.776L335.625 196.776L391.244 196.776L391.251 165.94C391.253 160.722 391.432 155.46 391.244 150.25C388.655 150.072 386.098 150.163 383.508 150.25ZM168.384 150.25L120.649 150.25L120.649 196.776C125.358 196.995 131.253 197.093 135.938 196.776L183.754 196.776L183.754 150.25C178.659 149.989 173.49 150.271 168.384 150.25Z"/>
</svg>
