<?xml version="1.0" encoding="utf-8" ?>
<svg xmlns="http://www.w3.org/2000/svg" xmlns:xlink="http://www.w3.org/1999/xlink" width="1024" height="1024">
	<path transform="scale(2 2)" d="M392.948 12.3115C398.354 11.882 403.409 16.5826 403.673 21.9269C403.887 26.2687 401.546 31.5478 400.959 35.9788C398.043 58.0095 401.02 99.8227 418.259 114.475C434.463 128.247 464.984 121.336 482.845 113.596C486.758 111.9 495.631 106.618 499.044 106.44C504.591 106.15 509.652 110.786 509.748 116.381C509.847 122.161 504.529 127.491 501.542 132.006C492.647 145.455 483.371 158.625 474.706 172.225C466.196 185.584 463.776 182.295 448.658 182.27L416.206 182.251L416.22 476.052C416.221 490.465 417.894 497.463 399.445 498.18C389.157 498.579 378.705 498.187 368.4 498.204C361.897 498.214 343.981 500.166 339.015 495.189C334.733 490.898 335.741 484.257 335.746 478.746L335.756 245.062L193.412 245.063C187.514 245.065 181.601 245.216 175.707 245.062C175.52 248.609 175.698 252.241 175.699 255.798L175.707 344.812L175.72 474.113C175.727 495.036 177.956 498.331 154.79 498.224L116.006 498.23C100.123 498.248 96.7091 498.679 96.736 481.368L96.7552 207.006C96.757 198.774 97.0331 190.475 96.7551 182.251C92.7405 182.047 88.6362 182.238 84.612 182.242L61.0929 182.258C42.2086 182.273 45.4369 184.054 34.357 167.534L17.7749 142.637C14.2822 137.333 3.32734 123.121 2.37083 118.232C1.24629 112.484 6.69042 105.907 12.6716 106.629C17.0304 107.156 22.4754 110.547 26.632 112.311C47.4197 121.128 83.4387 131.437 99.6691 109.078C111.709 92.4914 112.887 58.1639 110.578 38.4564C109.803 31.8363 105.047 23.1557 109.71 17.1093C113.324 12.423 120.235 11.7705 124.632 15.7641C128.372 19.1614 130.145 29.9654 130.288 35.0611C134.696 37.2889 138.791 40.3658 143.113 42.8085C166.077 55.7881 185.444 55.8825 210.651 55.8777L298.036 55.8764C328.465 55.8791 354.958 55.3584 380.41 35.0611C381.729 26.1468 382.174 14.0559 392.948 12.3115ZM131.261 60.3704C129.463 107.185 117.122 145.477 63.0144 142.758C55.2483 142.368 47.5307 140.487 39.9086 139.015C45.1782 146.323 50.481 154.07 55.1812 161.75L396.625 161.75L436.411 161.756C442.994 161.758 449.741 162.092 456.304 161.75C460.861 156.412 468.304 145.005 472.108 139.015C427.865 150.016 395.599 139.399 384.143 93.0384C381.726 83.257 379.255 70.3856 380.41 60.3704C376.099 62.2038 371.981 64.4377 367.671 66.2671C344.574 76.0693 325.952 76.3756 301.436 76.371L212.837 76.3747C186.403 76.3772 166.046 76.6794 141.334 64.8518C138.081 63.2947 134.814 61.0437 131.261 60.3704ZM117.379 182.251C116.935 196.155 118.3 211.287 117.379 224.823C121.359 224.323 125.474 224.8 129.483 224.815L245.506 224.823C245.493 219.763 244.898 207.013 245.84 202.779C247.578 194.969 257.772 191.846 263.463 197.814C268.629 203.232 266.515 217.858 266.49 224.823C299.295 225.167 332.142 224.822 364.951 224.823L383.125 224.841C387.177 224.865 391.202 225.012 395.254 224.823C395.528 210.653 395.252 196.427 395.254 182.251C384.861 181.904 374.352 182.252 363.944 182.252L117.379 182.251ZM364.951 245.062C362.008 245.305 359.323 245.385 356.377 245.062L356.375 451.445C356.374 460.103 356.187 468.805 356.377 477.458C366.54 477.268 376.71 477.471 386.875 477.458L395.254 477.458L395.254 245.062C391.819 245.461 368.266 245.642 364.951 245.062ZM117.379 245.062L117.379 477.458C129.932 477.65 142.708 477.855 155.255 477.458C155.503 476.816 155.254 433.254 155.254 428.503L155.254 306.41C155.255 285.972 155.519 265.496 155.255 245.062C151.336 245.481 147.076 245.075 143.112 245.069L117.379 245.062Z"/>
</svg>
