<?xml version="1.0" encoding="utf-8" ?>
<svg xmlns="http://www.w3.org/2000/svg" xmlns:xlink="http://www.w3.org/1999/xlink" width="1024" height="1024">
	<path transform="scale(2 2)" d="M255.506 41.8239C266.853 42.7183 265.641 50.5413 267.79 58.9166C276.31 92.1124 307.088 116.194 340.635 120.137C347.432 120.935 354.362 120.738 361.193 120.741L389.006 120.732L388.991 102.422C388.989 98.7599 388.592 94.6171 389.359 91.0336C391.587 80.6228 406.96 81.448 408.853 91.6072C409.604 95.6408 409.358 115.898 409.002 120.732C415.644 120.935 422.351 120.745 429 120.732L429 185.614L483.241 185.618C492.045 185.614 500.959 185.173 509.747 185.614C505.793 200.863 495.653 255.526 493.473 258.989C493.287 259.286 488.47 259.544 487.616 259.634C464.391 262.086 446.193 272.714 429 288.053L428.994 441.225C429.006 451.402 432.43 468.062 417.138 468.289C396.709 468.592 376.215 468.246 355.779 468.258L334.212 468.266C313.567 468.26 312.19 469.115 312.242 445.9L312.266 345.86C312.208 314.861 289.238 287.128 257.375 287.249C228.035 286.529 202.588 309.851 199.86 339.028C199.376 344.198 199.621 349.435 199.68 354.62L199.709 441.831C199.733 451.229 202.816 467.982 188.658 468.24C167.346 468.628 145.953 468.247 124.632 468.246L104.477 468.253C81.164 468.368 83.2482 465.411 83.2508 441.682L83.2536 290.682C69.6984 272.064 41.2541 258.435 18.6661 258.974C17.6526 254.427 16.8889 249.818 15.9496 245.254L9.78084 215.237C7.8135 205.411 5.35688 195.549 4.03532 185.614C8.18262 185.792 12.3355 185.628 16.4851 185.621L68.6275 185.614C73.5 185.617 78.3837 185.755 83.2536 185.614C82.6244 164.59 82.9637 141.794 83.2536 120.732L101.757 120.732L101.743 101.163C101.739 94.0989 100.626 84.4436 110.127 82.9403C128.199 80.0807 120.935 110.945 122.195 120.323L122.253 120.732C138.966 120.399 161.967 122.278 177.811 119.051C208.52 112.795 237.016 89.8723 244.487 58.6417C246.401 50.6404 245.661 43.4493 255.506 41.8239ZM152.344 178.117L142.008 178.117C142.015 187.153 142.226 196.238 142.008 205.268C129.053 205.488 116.007 204.793 103.068 205.268C103.437 232.184 103.064 259.161 103.063 286.082L103.068 448.788L178.756 448.788L178.751 356.637C178.745 346.19 178.511 336.211 181.052 325.96C197.782 258.464 286.498 245.405 322.44 304.864C331.86 322.045 333.254 334.08 333.257 353.074L333.25 447.75L409.002 447.75L409.001 231.607C409 222.86 408.624 213.996 409.002 205.268C395.745 205.132 382.474 205.271 369.216 205.268L369.216 178.117C345.207 177.763 321.134 178.117 297.119 178.117L152.344 178.117ZM255.506 84.9133C243.496 109.505 219.592 126.956 194.134 135.7C177.142 141.536 159.676 140.553 142.008 140.57L142.008 157.998L255.506 157.998L369.216 157.998L369.216 140.57C359.819 140.571 350.19 141.046 340.83 140.279C311.15 137.848 282.215 122.081 264.458 98.0323C262.426 95.2792 257.242 86.2957 255.506 84.9133ZM433.615 205.268L429 205.268L428.994 244.072C428.992 250.345 428.705 256.755 429 263.012C437.815 255.46 450.426 248.328 461.569 244.991C466.468 243.329 472.192 241.31 477.369 241.166C479.647 229.16 482.656 217.296 484.84 205.268L433.615 205.268ZM37.058 205.268C34.098 205.374 31.1833 205.41 28.2226 205.268C29.9239 215.755 34.4263 231.133 34.825 241.166C49.6415 242.957 66.3408 249.929 78.1993 258.974C79.9632 260.252 81.6544 261.531 83.2536 263.012L83.2536 205.268L37.058 205.268ZM104.263 140.57L103.265 140.717C102.098 142.351 103.045 146.422 103.061 148.446L103.085 172.946C103.086 177.102 103.363 181.475 103.068 185.614C108.048 186.115 115.978 185.606 121.312 185.614L121.956 185.557C123.231 183.636 122.24 174.115 122.245 171.371L122.253 140.57C116.28 140.661 110.233 140.726 104.263 140.57ZM389.746 140.57C389.547 145.56 389.745 150.602 389.75 155.598L389.746 185.614C391.952 185.6 408.384 185.991 409.002 185.614C407.917 175.709 409.148 160.624 408.949 150.073C408.891 146.947 408.626 143.679 409.002 140.57L389.746 140.57Z"/>
</svg>
