<?xml version="1.0" encoding="utf-8" ?>
<svg xmlns="http://www.w3.org/2000/svg" xmlns:xlink="http://www.w3.org/1999/xlink" width="1023" height="1024">
	<path transform="scale(2 2)" d="M133.986 45.2503C150.579 44.9679 167.232 45.2558 183.831 45.2563L367.168 45.2421C382.24 45.2444 387.145 42.6179 387.91 60.7698C389.022 87.1254 405.327 108.437 425.786 123.707C433.291 122.222 440.707 119.914 448.104 117.953L479.987 109.723C484.749 108.475 497.543 103.715 502.225 105.217C507.281 106.839 510.648 112.494 508.731 117.634C506.003 124.952 496.183 125.118 489.833 126.897C473.054 131.597 456.171 135.849 439.375 140.472C434.783 141.736 430.124 142.664 425.786 144.688C425.547 146.826 425.742 149.169 425.753 151.326L425.786 206.117L490.576 206.093C494.207 206.068 497.987 205.828 501.579 206.42C511.506 208.055 511.677 223.569 501.683 225.311C489.395 227.453 459.689 225.439 445.999 225.605L445.999 445.997C449.418 445.946 452.83 445.908 456.249 445.997L456.249 466L356.897 466L356.897 445.997C359.943 445.928 362.964 445.872 366.01 445.997L366.01 285.004C360.062 284.8 344.13 286.553 339.769 283.104C336.017 280.137 337.188 274.445 336.65 270.191C334.317 248.495 317.221 231.673 296.412 226.85C283.626 223.886 235.998 225.247 220.823 225.661C199.831 226.234 178.264 249.256 174.867 268.864C171.068 290.787 167.32 285.775 145.873 285.722L145.87 428.76C145.868 434.462 145.545 440.316 145.873 445.997C148.783 445.922 151.708 445.77 154.614 445.997L154.614 466L56.0663 466L56.0663 445.997L66.0282 445.997C66.2841 443.824 66.0661 441.447 66.0565 439.254L66.0282 225.605L28.8193 225.608C24.0294 225.608 16.0505 226.149 11.6809 225.443C3.84325 224.177 2.37468 213.907 7.3503 208.802C10.8521 205.209 17.3213 206.12 21.8677 206.114L85.8943 206.117L85.9017 161.649C85.9051 157.127 85.2715 148.619 85.8943 144.688L22.9574 127.097C16.1224 125.27 2.0154 123.17 4.74469 112.553C7.8138 100.613 19.2664 105.748 27.2739 108.02L50.9042 114.885C63.0867 118.438 75.468 121.232 87.6528 124.842C103.459 108.883 119.861 92.0185 123.704 68.954C125.235 59.7675 121.813 47.4651 133.986 45.2503ZM160.06 145.251L105.379 145.251C105.084 151.868 105.379 158.611 105.38 165.243L105.379 206.117C114.476 206.322 123.614 206.119 132.717 206.118L351.625 206.117L406.252 206.117C406.449 193.244 406.252 180.338 406.256 167.461L406.264 152.613C406.266 150.176 406.407 147.681 406.252 145.251C397.149 145.094 388.019 145.25 378.912 145.251L160.06 145.251ZM144.083 64.9993C141.986 93.4378 130.768 105.968 113.794 125.75C122.911 126.106 132.168 125.749 141.301 125.748L367.125 125.75L398.104 125.75C380.774 110.918 370.462 87.457 368.663 64.9993L144.083 64.9993ZM387.875 285.004C384.518 285.296 385.499 287.456 385.514 290.176L385.503 407.064C385.503 420.014 385.826 433.054 385.499 445.997L424.843 445.997L426.142 445.909C427.346 444.454 426.586 429.575 426.587 426.908L426.596 285.004C422.335 285.273 417.941 285.017 413.665 285.011L387.875 285.004ZM107.999 285.722C100.636 285.577 93.2591 285.73 85.8943 285.722L85.8943 445.997L104.625 445.997L126.132 445.997L126.137 303.019C126.141 297.355 126.573 291.354 126.132 285.722L107.999 285.722ZM366.01 225.605C356.261 225.594 346.38 225.953 336.65 225.605C346.792 237.898 353.051 249.931 356.178 265.633L398.104 265.633L426.596 265.633L426.596 225.605L366.01 225.605ZM115.359 225.605L85.8943 225.605L85.8943 265.633L147.375 265.633C150.133 265.639 152.892 265.666 155.649 265.633C160.462 247.656 165.679 239.433 176.708 225.605C169.863 225.832 162.966 225.604 156.113 225.602L115.359 225.605Z"/>
</svg>
