<?xml version="1.0" encoding="utf-8" ?>
<svg xmlns="http://www.w3.org/2000/svg" xmlns:xlink="http://www.w3.org/1999/xlink" width="1024" height="1024">
	<path transform="scale(2 2)" d="M422.502 51.9957L439.677 51.9637C454.159 51.9194 455.912 51.2393 461.799 66.0375L503.686 170.287C510.426 186.522 512.433 190.738 508.179 209.494C504.168 227.18 493.542 242.98 478.15 252.7C478.16 252.966 478.168 253.233 478.169 253.5L478.147 429.533C478.148 435.852 478.656 443.886 478.083 449.985C476.905 462.529 462.049 459.993 453.215 459.993L90.125 459.988L58.4331 460.008C49.9347 460.015 35.7193 462.311 34.2893 450.224C33.4757 443.347 34.0209 435.95 34.0212 429.012L34.0169 253.662C13.6508 239.319 2.45396 215.827 2.21518 191.069C2.1522 184.54 4.37626 180.002 6.78989 174.132L24.9095 128.825C32.8018 108.926 40.3237 88.8829 48.4264 69.0693C56.5386 49.2322 55.3752 51.925 75.6422 51.9923L422.502 51.9957ZM74.0568 73.0045C72.6577 73.0166 71.2378 73.0811 69.8412 73.0045L27.948 178.853C22.8265 191.689 22.2221 200.002 28.1093 213.646C48.8333 261.676 118.343 250.785 123.389 201.521C124.11 194.489 121.989 187.185 129.876 183.602C135.121 181.219 142.496 183.25 144.79 188.88C146.62 193.371 145.907 199.041 146.546 203.82C148.798 220.658 160.835 233.856 175.967 240.634C204.553 253.438 240.2 233.977 244.223 202.613C245.136 195.501 243.173 186.696 251.59 183.395C257.751 180.978 264.391 183.779 266.668 190.003C268.021 193.703 267.127 198.238 267.806 202.152C275.381 245.818 331.766 258.676 355.937 225.758C361.982 218.029 365.684 208.722 366.231 198.914C366.519 193.748 365.839 188.638 370.507 185.027C374.789 181.713 380.951 181.973 385.05 185.487C390.081 189.8 388.401 197.493 389.048 203.362C391.984 229.986 416.287 245.627 441.85 244.239C468.251 242.805 489.387 217.045 487.687 191.099C487.294 185.106 470.923 147.606 466.531 136.498L446.176 85.7341C444.434 81.5515 442.517 77.3885 441.337 73.0045L108.661 73.0075C97.1375 73.0075 85.5745 73.2302 74.0568 73.0045ZM255.949 231.61C234.972 262.051 202.497 275.117 166.862 259.762C150.197 252.581 145.405 245.279 134.947 232.59C116.48 260.694 87.5075 271.156 55.4272 263.229L55.4272 438.563L177.758 438.563L177.743 319.52C177.727 301.702 175.289 296.328 195.298 296.471L252.625 296.501L315.746 296.498C336.398 296.51 334.814 300.94 334.827 319.892L334.81 438.563L444.802 438.547C448.482 438.542 452.636 438.124 456.254 438.563L456.251 283.582C456.25 277.185 456.026 270.708 456.254 264.319C424.672 270.14 396.573 262.338 377.172 234.56C368.705 246.076 359.209 254.717 345.97 260.177C317.323 271.992 280.562 265.456 261.69 239.758C260.485 238.116 257.394 232.335 255.949 231.61ZM199.261 318.272L199.257 398.481C199.257 411.813 198.915 425.24 199.261 438.563L313.195 438.563C313.372 423.939 313.196 409.291 313.197 394.665L313.195 318.272L199.261 318.272Z"/>
</svg>
