<?xml version="1.0" encoding="utf-8" ?>
<svg xmlns="http://www.w3.org/2000/svg" xmlns:xlink="http://www.w3.org/1999/xlink" width="1024" height="1024">
	<path fill="#64646F" fill-opacity="0.49411765" transform="scale(2 2)" d="M0 505.032C0.0941727 504.953 0.191372 504.878 0.282518 504.797C1.51247 503.692 1.24604 500.815 3.43549 500.719C3.86013 500.7 3.89388 500.891 4.16751 501.17C4.48886 502.24 4.4092 503.22 4.36276 504.319L4.29148 504.247L4.48154 504.599C4.89361 505.371 5.38776 506.976 6.12619 507.334C7.6838 507.123 7.84137 505.639 9.67045 506.03C10.9021 507.022 11.3715 509.071 11.5065 510.596C11.5525 511.116 11.4096 511.212 11.3804 511.64C11.3722 511.76 11.409 511.88 11.4232 512L2.24853 512L0 512L0 508.199L0 505.032ZM0 508.199L0 512L2.24853 512C2.11694 511.274 2.04317 510.018 1.68273 509.379C1.2536 508.619 0.749884 508.525 0 508.199Z"/>
	<path fill="#64646F" fill-opacity="0.98823529" transform="scale(2 2)" d="M0 508.199C0.749884 508.525 1.2536 508.619 1.68273 509.379C2.04317 510.018 2.11694 511.274 2.24853 512L0 512L0 508.199Z"/>
</svg>
